# xmcd
#
# Track frame offsets: 
#        150
#        20190
#        39537
#        53944
#        72168
#        91755
#        105622
#        123440
#        140322
#        155106
#        170136
#        191301
#        205266
#        223244
#        247316
#
# Disc length: 3461 seconds
#
# Revision: 0
# Processed by: cddbd v1.5.2PL0 Copyright (c) Steve Scherf et al.
# Submitted via: ExactAudioCopy v1.0b3
#
DISCID=e50d830f
DTITLE=Vivaldi, Antonio - Fagottkonzerte and Tartini, Flötenkonzert (Thu
DTITLE=nemann, Gazzeloni, I Musici)
DYEAR=1974
DGENRE=Fagottkonzert, Flötenkonzert
TTITLE0=Fagottkonzert e-moll RV 484 - 1. Allegro poco
TTITLE1=Fagottkonzert e-moll RV 484 - 2. Andante
TTITLE2=Fagottkonzert e-moll RV 484 - 3. Allegro
TTITLE3=Fagottkonzert a-moll RV 498 - 1. Allegro
TTITLE4=Fagottkonzert a-moll RV 498 - 2. Larghetto
TTITLE5=Fagottkonzert a-moll RV 498 - 3. Allegro
TTITLE6=Fagottkonzert F-dur RV 489 - 1. Allegro
TTITLE7=Fagottkonzert F-dur RV 489 - 2. Largo
TTITLE8=Fagottkonzert F-dur RV 489 - 3. Allegro
TTITLE9=Fagottkonzert B-dur RV 502 - 1. Allegro
TTITLE10=Fagottkonzert B-dur RV 502 - 2. Largo
TTITLE11=Fagottkonzert B-dur RV 502 - 3. Allegro
TTITLE12=Tartini, Giuseppe - Flötenkonzert G-dur - 1. Allegro non molt
TTITLE12=o
TTITLE13=Tartini, Giuseppe - Flötenkonzert G-dur - 2. Andante
TTITLE14=Tartini, Giuseppe - Flötenkonzert G-dur - 3. Allegro
EXTD=
EXTT0=
EXTT1=
EXTT2=
EXTT3=
EXTT4=
EXTT5=
EXTT6=
EXTT7=
EXTT8=
EXTT9=
EXTT10=
EXTT11=
EXTT12=
EXTT13=
EXTT14=
PLAYORDER=
